<svg width="180" height="180" viewBox="0 0 180 180" fill="none" xmlns="http://www.w3.org/2000/svg">
<path d="M73.3334 140C82.5334 140 90 132.533 90 123.333V106.667H73.3334C64.1334 106.667 56.6667 114.133 56.6667 123.333C56.6667 132.533 64.1334 140 73.3334 140Z" fill="#0ACF83"/>
<path d="M56.6667 89.9999C56.6667 80.7999 64.1334 73.3333 73.3334 73.3333H90V106.667H73.3334C64.1334 106.667 56.6667 99.1999 56.6667 89.9999Z" fill="#A259FF"/>
<path d="M56.6667 56.6667C56.6667 47.4667 64.1334 40 73.3334 40H90V73.3333H73.3334C64.1334 73.3333 56.6667 65.8667 56.6667 56.6667Z" fill="#F24E1E"/>
<path d="M90 40H106.667C115.867 40 123.333 47.4667 123.333 56.6667C123.333 65.8667 115.867 73.3333 106.667 73.3333H90V40Z" fill="#FF7262"/>
<path d="M123.333 89.9999C123.333 99.1999 115.867 106.667 106.667 106.667C97.4667 106.667 90 99.1999 90 89.9999C90 80.7999 97.4667 73.3333 106.667 73.3333C115.867 73.3333 123.333 80.7999 123.333 89.9999Z" fill="#1ABCFE"/>
</svg>
