<svg width="55" height="33" viewBox="0 0 55 33" fill="none" xmlns="http://www.w3.org/2000/svg">
<path d="M16.6469 9.15271C15.3422 9.15228 14.2171 9.46831 13.2716 10.1008C12.3339 10.7333 11.6344 11.5847 11.1731 12.6548C10.7118 13.725 10.4809 14.9554 10.4805 16.346C10.4801 17.3851 10.6048 18.3343 10.8545 19.1938C11.1043 20.0454 11.479 20.7955 11.9788 21.4441C12.4786 22.0849 13.1269 22.5851 13.9236 22.9448C14.7282 23.2966 15.65 23.4727 16.6891 23.473C18.025 23.4735 19.4079 23.1263 20.8378 22.4314L21.1771 24.1542C20.0128 24.8882 18.4385 25.2549 16.4541 25.2542C15.1494 25.2538 13.9776 25.0385 12.9387 24.6085C11.9076 24.1707 11.0523 23.5571 10.3729 22.7678C9.70128 21.9707 9.18987 21.0253 8.83867 19.9314C8.48747 18.8297 8.31209 17.607 8.31253 16.2632C8.31295 14.9664 8.50475 13.7711 8.88793 12.6775C9.2711 11.5839 9.81047 10.6466 10.506 9.86553C11.2094 9.0767 12.0846 8.46371 13.1316 8.02655C14.1787 7.5894 15.3428 7.37103 16.624 7.37145C18.5694 7.37209 20.2098 7.80232 21.5455 8.66213L20.7481 10.3142C19.4671 9.54035 18.1 9.15319 16.6469 9.15271ZM31.7475 23.935L26.4313 11.5583L25.9863 10.3745L26.067 14.6167L26.0636 24.9996L24.1651 24.9989L24.1708 7.6669L26.7958 7.66776L32.8264 21.4744L38.8075 7.67172L41.3622 7.67256L41.3565 25.0046L39.3878 25.0039L39.3912 14.5743L39.4746 10.4258L39.0406 11.6093L33.728 23.9357L31.7475 23.935Z" fill="white"/>
<path d="M13.2716 10.1008L12.7156 9.26964L12.7124 9.27178L13.2716 10.1008ZM10.8545 19.1938L9.89424 19.4728L9.89494 19.4751L10.8545 19.1938ZM11.9788 21.4441L11.1867 22.0545L11.1903 22.0592L11.9788 21.4441ZM13.9236 22.9448L13.5122 23.8563L13.523 23.861L13.9236 22.9448ZM20.8378 22.4314L21.819 22.2382L21.5682 20.9647L20.4008 21.532L20.8378 22.4314ZM21.1771 24.1542L21.7104 25.0001L22.2909 24.6342L22.1583 23.961L21.1771 24.1542ZM12.9387 24.6085L12.5478 25.529L12.5562 25.5325L12.9387 24.6085ZM10.3729 22.7678L9.60811 23.4122L9.61501 23.4202L10.3729 22.7678ZM8.83867 19.9314L7.8859 20.2351L7.88654 20.2371L8.83867 19.9314ZM10.506 9.86553L9.75966 9.20001L9.75926 9.20046L10.506 9.86553ZM21.5455 8.66213L22.4461 9.09682L22.8306 8.30013L22.0868 7.82129L21.5455 8.66213ZM20.7481 10.3142L20.231 11.1702L21.1712 11.7381L21.6487 10.7489L20.7481 10.3142ZM16.6472 8.15271C15.1744 8.15222 13.849 8.51146 12.7156 9.26964L13.8276 10.932C14.5852 10.4252 15.51 10.1523 16.6466 10.1527L16.6472 8.15271ZM12.7124 9.27178C11.611 10.0147 10.7894 11.0186 10.2548 12.259L12.0914 13.0507C12.4793 12.1507 13.0568 11.4519 13.8308 10.9298L12.7124 9.27178ZM10.2548 12.259C9.73028 13.4758 9.48096 14.8448 9.48047 16.3457L11.4805 16.3463C11.4809 15.0659 11.6933 13.9742 12.0914 13.0507L10.2548 12.259ZM9.48047 16.3457C9.4801 17.4644 9.61432 18.5093 9.89425 19.4728L11.8148 18.9148C11.5953 18.1593 11.4802 17.3057 11.4805 16.3463L9.48047 16.3457ZM9.89494 19.4751C10.1766 20.4359 10.605 21.2996 11.1867 22.0545L12.7709 20.8338C12.353 20.2914 12.0319 19.655 11.8141 18.9124L9.89494 19.4751ZM11.1903 22.0592C11.7973 22.8375 12.579 23.435 13.5122 23.8562L14.335 22.0333C13.6747 21.7353 13.1598 21.3324 12.7673 20.8291L11.1903 22.0592ZM13.523 23.861C14.4747 24.2772 15.5368 24.4727 16.6887 24.473L16.6894 22.473C15.7632 22.4727 14.9816 22.316 14.3243 22.0286L13.523 23.861ZM16.6887 24.473C18.2024 24.4735 19.7343 24.0795 21.2749 23.3309L20.4008 21.532C19.0815 22.1731 17.8476 22.4734 16.6894 22.473L16.6887 24.473ZM19.8567 22.6247L20.196 24.3474L22.1583 23.961L21.819 22.2382L19.8567 22.6247ZM20.6438 23.3083C19.6951 23.9064 18.329 24.2548 16.4544 24.2542L16.4538 26.2542C18.548 26.2549 20.3306 25.87 21.7104 25.0001L20.6438 23.3083ZM16.4544 24.2542C15.2601 24.2538 14.2211 24.057 13.3211 23.6845L12.5562 25.5325C13.7341 26.0201 15.0387 26.2537 16.4538 26.2542L16.4544 24.2542ZM13.3295 23.6881C12.4288 23.3056 11.7026 22.7797 11.1308 22.1154L9.61501 23.4202C10.402 24.3345 11.3863 25.0358 12.5478 25.529L13.3295 23.6881ZM11.1376 22.1235C10.5581 21.4357 10.1063 20.6083 9.79079 19.6257L7.88654 20.2371C8.27347 21.4422 8.84442 22.5058 9.60815 23.4122L11.1376 22.1235ZM9.79142 19.6277C9.47617 18.6387 9.31211 17.5205 9.31253 16.2636L7.31253 16.2629C7.31206 17.6935 7.49876 19.0207 7.88591 20.2351L9.79142 19.6277ZM9.31253 16.2636C9.31292 15.0659 9.48985 13.9838 9.83168 13.0082L7.94418 12.3468C7.51966 13.5585 7.31299 14.8668 7.31253 16.2629L9.31253 16.2636ZM9.83168 13.0082C10.1763 12.0245 10.653 11.2041 11.2528 10.5306L9.75926 9.20046C8.9679 10.089 8.36587 11.1433 7.94418 12.3468L9.83168 13.0082ZM11.2524 10.5311C11.849 9.862 12.5977 9.33317 13.5169 8.94935L12.7464 7.10376C11.5716 7.59425 10.5699 8.2914 9.75966 9.20001L11.2524 10.5311ZM13.5169 8.94935C14.427 8.56938 15.4578 8.37107 16.6237 8.37145L16.6244 6.37145C15.2278 6.37099 13.9303 6.60941 12.7464 7.10376L13.5169 8.94935ZM16.6237 8.37145C18.4205 8.37204 19.8628 8.76819 21.0042 9.50297L22.0868 7.82129C20.5569 6.83644 18.7182 6.37214 16.6244 6.37145L16.6237 8.37145ZM20.6449 8.22744L19.8475 9.87953L21.6487 10.7489L22.4461 9.09682L20.6449 8.22744ZM21.2652 9.45828C19.8331 8.59319 18.2881 8.15325 16.6472 8.15271L16.6466 10.1527C17.9119 10.1531 19.101 10.4875 20.231 11.1702L21.2652 9.45828ZM31.7475 23.935L30.8287 24.3297L31.0886 24.9348L31.7472 24.935L31.7475 23.935ZM26.4313 11.5583L25.4952 11.9101L25.5033 11.9317L25.5124 11.9529L26.4313 11.5583ZM25.9863 10.3745L26.9224 10.0227L24.9865 10.3935L25.9863 10.3745ZM26.067 14.6167L27.067 14.6171L27.067 14.6074L27.0668 14.5977L26.067 14.6167ZM26.0636 24.9996L26.0632 25.9996L27.0632 25.9999L27.0636 24.9999L26.0636 24.9996ZM24.1651 24.9989L23.1651 24.9986L23.1648 25.9986L24.1648 25.9989L24.1651 24.9989ZM24.1708 7.6669L24.1712 6.6669L23.1712 6.66657L23.1708 7.66657L24.1708 7.6669ZM26.7958 7.66776L27.7122 7.26749L27.4504 6.66798L26.7962 6.66776L26.7958 7.66776ZM32.8264 21.4744L31.91 21.8747L32.8301 23.9811L33.744 21.872L32.8264 21.4744ZM38.8075 7.67172L38.8079 6.67172L38.1511 6.6715L37.89 7.27411L38.8075 7.67172ZM41.3622 7.67256L42.3622 7.67288L42.3626 6.67288L41.3626 6.67256L41.3622 7.67256ZM41.3565 25.0046L41.3562 26.0046L42.3562 26.0049L42.3565 25.0049L41.3565 25.0046ZM39.3878 25.0039L38.3878 25.0036L38.3875 26.0036L39.3875 26.0039L39.3878 25.0039ZM39.3912 14.5743L38.3914 14.5542L38.3912 14.564L38.3912 14.5739L39.3912 14.5743ZM39.4746 10.4258L40.4744 10.4459L38.5357 10.0816L39.4746 10.4258ZM39.0406 11.6093L39.959 12.0051L39.9699 11.9796L39.9795 11.9536L39.0406 11.6093ZM33.728 23.9357L33.7276 24.9357L34.3858 24.9359L34.6463 24.3315L33.728 23.9357ZM32.6663 23.5404L27.3501 11.1636L25.5124 11.9529L30.8287 24.3297L32.6663 23.5404ZM27.3673 11.2064L26.9224 10.0227L25.0503 10.7264L25.4952 11.9101L27.3673 11.2064ZM24.9865 10.3935L25.0672 14.6357L27.0668 14.5977L26.9862 10.3555L24.9865 10.3935ZM25.067 14.6164L25.0636 24.9992L27.0636 24.9999L27.067 14.6171L25.067 14.6164ZM26.0639 23.9996L24.1655 23.9989L24.1648 25.9989L26.0632 25.9996L26.0639 23.9996ZM25.1651 24.9993L25.1708 7.66723L23.1708 7.66657L23.1651 24.9986L25.1651 24.9993ZM24.1705 8.6669L26.7955 8.66776L26.7962 6.66776L24.1712 6.6669L24.1705 8.6669ZM25.8794 8.06804L31.91 21.8747L33.7428 21.0742L27.7122 7.26749L25.8794 8.06804ZM33.744 21.872L39.7251 8.06932L37.89 7.27411L31.9089 21.0768L33.744 21.872ZM38.8072 8.67172L41.3619 8.67256L41.3626 6.67256L38.8079 6.67172L38.8072 8.67172ZM40.3622 7.67223L40.3565 25.0043L42.3565 25.0049L42.3622 7.67288L40.3622 7.67223ZM41.3569 24.0046L39.3881 24.0039L39.3875 26.0039L41.3562 26.0046L41.3569 24.0046ZM40.3878 25.0043L40.3912 14.5746L38.3912 14.5739L38.3878 25.0036L40.3878 25.0043ZM40.391 14.5944L40.4744 10.4459L38.4748 10.4057L38.3914 14.5542L40.391 14.5944ZM38.5357 10.0816L38.1018 11.265L39.9795 11.9536L40.4135 10.7701L38.5357 10.0816ZM38.1223 11.2135L32.8096 23.5399L34.6463 24.3315L39.959 12.0051L38.1223 11.2135ZM33.7283 22.9357L31.7478 22.935L31.7472 24.935L33.7276 24.9357L33.7283 22.9357Z" fill="white"/>
<path d="M1.00375 4.99133L5.00375 4.99265L4.99619 27.9926L0.996189 27.9913L1.00375 4.99133Z" fill="white"/>
<path d="M1.00375 4.99133L5.00375 4.99265L4.99619 27.9926L0.996189 27.9913L1.00375 4.99133Z" fill="white"/>
<path d="M4.00854 9.05798L4.00364 4.99709L46.7205 4.94546L46.7254 9.00635L4.00854 9.05798Z" fill="#FEFEFE"/>
<path d="M4.00854 9.05798L4.00364 4.99709L46.7205 4.94546L46.7254 9.00635L4.00854 9.05798Z" fill="white"/>
<path d="M46 5.0014L50.0609 5.00001L50.0687 27.9568L46.0079 27.9582L46 5.0014Z" fill="#FFFAFA"/>
<path d="M46 5.0014L50.0609 5.00001L50.0687 27.9568L46.0079 27.9582L46 5.0014Z" fill="white"/>
<path d="M4.00224 27.9945L3.99749 24.058L46.7144 24.0064L46.7191 27.9429L4.00224 27.9945Z" fill="white"/>
<path d="M4.00224 27.9945L3.99749 24.058L46.7144 24.0064L46.7191 27.9429L4.00224 27.9945Z" fill="white"/>
</svg>
